<?xml version="1.0" encoding="utf-8"?>
<!-- Generator: Adobe Illustrator 22.0.1, SVG Export Plug-In . SVG Version: 6.00 Build 0)  -->
<svg version="1.1" id="Lager_1" xmlns="http://www.w3.org/2000/svg" xmlns:xlink="http://www.w3.org/1999/xlink" x="0px" y="0px"
	 viewBox="0 0 529.3 523.9" style="enable-background:new 0 0 529.3 523.9;" xml:space="preserve">
<style type="text/css">
	.st0{fill:#9A959B;}
</style>
<path class="st0" d="M521.1,263.9c0,87.2-43.5,164.2-110,210.6v-58.8c0-47.7-39-86.7-86.7-86.7h-29.6
	c49.1-13.3,85.3-58.2,85.3-111.5c0-63.8-51.7-115.5-115.5-115.5s-115.5,51.7-115.5,115.5c0,53.3,36.1,98.2,85.3,111.5h-29.6
	c-47.7,0-86.7,39-86.7,86.7v58.8c-66.5-46.3-110-123.4-110-210.6C8.1,122.3,123,7.4,264.6,7.4S521.1,122.3,521.1,263.9z"/>
</svg>
