<?xml version="1.0" encoding="utf-8"?>
<!-- Generator: Adobe Illustrator 22.0.1, SVG Export Plug-In . SVG Version: 6.00 Build 0)  -->
<svg version="1.1" id="Lager_1" xmlns="http://www.w3.org/2000/svg" xmlns:xlink="http://www.w3.org/1999/xlink" x="0px" y="0px"
	 viewBox="0 0 291.9 298.6" style="enable-background:new 0 0 291.9 298.6;" xml:space="preserve">
<style type="text/css">
	.st0{fill:#AE66B9;}
</style>
<g>
	<path class="st0" d="M145.4,43.1c29,0,56.3,11.3,76.8,31.8c20.5,20.5,31.8,47.8,31.8,76.8s-11.3,56.3-31.8,76.8
		c-20.5,20.5-47.8,31.8-76.8,31.8s-56.3-11.3-76.8-31.8c-20.5-20.5-31.8-47.8-31.8-76.8S48.1,95.5,68.6,75
		C89.1,54.4,116.4,43.1,145.4,43.1 M145.4,14.1c-76,0-137.7,61.6-137.7,137.7s61.6,137.7,137.7,137.7s137.7-61.6,137.7-137.7
		S221.5,14.1,145.4,14.1L145.4,14.1z"/>
</g>
<path class="st0" d="M140.6,177.5L140.6,177.5c-4.9,0-8.9-4-8.9-8.9V71.3c0-4.9,4-8.9,8.9-8.9h0c4.9,0,8.9,4,8.9,8.9v97.3
	C149.4,173.5,145.4,177.5,140.6,177.5z"/>
<path class="st0" d="M132.9,173L132.9,173c-2.4-4.2-1-9.7,3.2-12.1l37.3-21.5c4.2-2.4,9.7-1,12.1,3.2l0,0c2.4,4.2,1,9.7-3.2,12.1
	L145,176.3C140.8,178.7,135.3,177.3,132.9,173z"/>
</svg>
