<?xml version="1.0" encoding="utf-8"?>
<!-- Generator: Adobe Illustrator 22.0.1, SVG Export Plug-In . SVG Version: 6.00 Build 0)  -->
<svg version="1.1" id="Lager_1" xmlns="http://www.w3.org/2000/svg" xmlns:xlink="http://www.w3.org/1999/xlink" x="0px" y="0px"
	 viewBox="0 0 591 589" style="enable-background:new 0 0 591 589;" xml:space="preserve">
<style type="text/css">
	.st0{fill:#AE66B9;}
</style>
<g>
	<path class="st0" d="M294.5,51.9c32.9,0,64.8,6.4,94.8,19.1c29,12.3,55,29.8,77.4,52.2s39.9,48.4,52.2,77.4
		c12.7,30,19.1,61.9,19.1,94.8s-6.4,64.8-19.1,94.8c-12.3,29-29.8,55-52.2,77.4s-48.4,39.9-77.4,52.2c-30,12.7-61.9,19.1-94.8,19.1
		s-64.8-6.4-94.8-19.1c-29-12.3-55-29.8-77.4-52.2s-39.9-48.4-52.2-77.4c-12.7-30-19.1-61.9-19.1-94.8s6.4-64.8,19.1-94.8
		c12.3-29,29.8-55,52.2-77.4c22.4-22.4,48.4-39.9,77.4-52.2C229.7,58.3,261.6,51.9,294.5,51.9 M294.5,1.9C132.4,1.9,1,133.3,1,295.4
		s131.4,293.5,293.5,293.5S588,457.5,588,295.4S456.6,1.9,294.5,1.9L294.5,1.9z"/>
</g>
<g>
	<g>
		<path class="st0" d="M202,220.9c-6.6,0-6,5.4-6,12l-6,212c0,6.6,5.4,12,12,12h1c6.6,0,12-5.4,12-12l-6-212
			C209,226.3,208.6,220.9,202,220.9L202,220.9z"/>
	</g>
	<path class="st0" d="M221.9,193.7"/>
	<path class="st0" d="M202.6,193.7"/>
	<path class="st0" d="M209,249.9h-12.1c-5.3,0-21.7-8.5-24.1-17.9c-1.8-7,0.8-88.6,6.4-88.6s6.3,67.8,6.3,67.8
		c0.6,3.8,2.5,3.7,3.1-0.1"/>
	<path class="st0" d="M211.4,238c-5.3,0-20.1,3.4-22.5-6c-1.8-7,0.8-88.6,6.4-88.6s6.3,67.8,6.3,67.8c0.6,3.8,2.5,3.7,3.1-0.1
		l5.9-67.8"/>
	<path class="st0" d="M206.6,249.9c5.3,0,24.4-11.1,26.8-20.4c1.8-7-0.8-88.6-6.4-88.6c-5.6,0-6.3,67.8-6.3,67.8
		c-0.6,3.8-2.5,3.7-3.1-0.1l-5.9-67.8"/>
	<path class="st0" d="M194,249.9c5.3,0,21.7-8.5,24.1-17.9c1.8-7-0.8-88.6-6.4-88.6c-5.6,0-6.3,67.8-6.3,67.8
		c-0.6,3.8-2.5,3.7-3.1-0.1l-5.9-67.8"/>
	<g>
		<path class="st0" d="M294,137.9c-6.6,0-7,88.4-7,95l-6,212c0,6.6,5.4,12,12,12h1c6.6,0,12-5.4,12-12l-4-150c0-6.6,10-12,16-42
			c3-14.8,4-49-5-76C310.3,168.8,301,137.9,294,137.9L294,137.9z"/>
	</g>
	<g>
		<path class="st0" d="M385,220.9c-6.6,0-6,5.4-6,12l-6,212c0,6.6,5.4,12,12,12h1c6.6,0,12-5.4,12-12l-6-212
			C392,226.3,391.6,220.9,385,220.9L385,220.9z"/>
	</g>
	<g>
		<path class="st0" d="M385.5,143.9c-16.8,0-30.5,25.5-30.5,57c0,26.9,8.9,56.4,22.3,62.4c0.2,0.1,0.3,0.1,0.5,0.1
			c2.3,0,5.4-5.5,7.6-5.5c2.7,0,4.5,4.9,6.8,4.9c0.3,0,0.6-0.1,0.9-0.2c12.6-7,22.8-35.8,22.8-61.7
			C416,169.4,402.3,143.9,385.5,143.9L385.5,143.9z"/>
	</g>
</g>
</svg>
