<?xml version="1.0" encoding="utf-8"?>
<!-- Generator: Adobe Illustrator 22.0.1, SVG Export Plug-In . SVG Version: 6.00 Build 0)  -->
<svg version="1.1" id="Lager_1" xmlns="http://www.w3.org/2000/svg" xmlns:xlink="http://www.w3.org/1999/xlink" x="0px" y="0px"
	 viewBox="0 0 718.2 683.1" style="enable-background:new 0 0 718.2 683.1;" xml:space="preserve">
<style type="text/css">
	.st0{fill:#AE66B9;}
	.st1{fill:#FFFFFF;}
</style>
<g>
	<polygon class="st0" points="359.1,0 470.1,224.9 718.2,260.9 538.6,436 581,683.1 359.1,566.4 137.2,683.1 179.5,436 0,260.9 
		248.1,224.9 	"/>
</g>
<g>
	<g>
		<polygon class="st1" points="182.2,435.1 5.4,262.6 249.8,227.2 359.1,5.6 468.4,227.2 712.8,262.6 535.9,435.1 577.7,678.5 
			359.1,563.6 140.5,678.5 		"/>
		<path class="st0" d="M359.1,11.3l106.5,215.8l1.2,2.4l2.6,0.4l238.1,34.5l-172.3,168l-1.9,1.8l0.4,2.6L574.4,674L361.4,562
			l-2.3-1.2l-2.3,1.2L143.8,674l40.6-237.1l0.4-2.6l-1.9-1.8l-172.2-168l238.1-34.5l2.6-0.4l1.2-2.4L359.1,11.3 M359.1,0l-111,224.9
			L0,260.9L179.5,436l-42.3,247.1l221.9-116.7L581,683.1L538.6,436l179.6-175.1l-248.1-36L359.1,0L359.1,0z"/>
	</g>
</g>
</svg>
